<svg width="1000" height="182" viewBox="0 0 1000 182" fill="none" xmlns="http://www.w3.org/2000/svg">
    <g clip-path="url(#clip0_1935_11741)">
        <path d="M1000 0H0V182H1000V0Z" fill="transparent"/>
        <path d="M900.3 0C894.3 9.6 887.8 18.8 881 27.5C826.7 96.8 745.5 140 643.1 140C558.9 140 414.7 74.7 277.4 0H345.8C364.9 22.9 387 42.7 412 58.8C458.1 88.5 513.9 105.4 578 105.4C648.9 105.4 762.2 59.1 878.2 0H900.3Z" fill="#37A54A"/>
        <path d="M878.2 0C762.2 59.2 648.8 105.4 578 105.4C513.9 105.4 458.1 88.4 412 58.8C387 42.7 364.9 22.9 345.8 0H878.2Z" fill="#0C6B15"/>
    </g>
    <defs>
        <clipPath id="clip0_1935_11741">
            <rect width="1000" height="182" fill="white"/>
        </clipPath>
    </defs>
</svg>
